<svg xmlns="http://www.w3.org/2000/svg" xmlns:xlink="http://www.w3.org/1999/xlink" viewBox="0 0 800 323.09"><defs><style>.cls-1{fill-rule:evenodd;fill:url(#linear-gradient);}</style><linearGradient id="linear-gradient" x1="-188.49" y1="-1507.9" x2="17.41" y2="-1291.96" gradientTransform="matrix(1, 0, 0, -1, 242.36, -1233.19)" gradientUnits="userSpaceOnUse"><stop offset="0" stop-color="#0078ff"/><stop offset="1" stop-color="#00deff"/></linearGradient></defs><g id="Слой_2" data-name="Слой 2"><g id="Layer_1" data-name="Layer 1"><path d="M422.33,234.32A57.58,57.58,0,0,1,402.48,231,48.19,48.19,0,0,1,387,221.64a47.42,47.42,0,0,1-10.47-16,68.94,68.94,0,0,1-3.86-22.6v-3.86c0-8.27,1.1-14.89,3.86-21.51A51,51,0,0,1,387,142.25c4.41-4.41,9.93-7.17,15.44-9.38a53.83,53.83,0,0,1,18.75-3.3A64,64,0,0,1,440,132.32,37.38,37.38,0,0,1,453.76,140a36.06,36.06,0,0,1,8.82,11.58C464.78,156,465.89,161,467,166H441.63a30.9,30.9,0,0,0-6.62-11c-2.76-2.76-7.17-3.86-13.23-3.86a28,28,0,0,0-9.37,1.65,20,20,0,0,0-12.69,13.79,41.64,41.64,0,0,0-1.65,12.68v3.86a49.75,49.75,0,0,0,1.65,13.78,21.67,21.67,0,0,0,5,9.37c2.2,2.21,4.41,4.41,7.72,5.52a25.76,25.76,0,0,0,9.37,1.65c5,0,9.37-1.1,12.68-3.86s6.06-6.06,7.17-11H467a42.69,42.69,0,0,1-4.41,14.89A38,38,0,0,1,453.21,225a36.49,36.49,0,0,1-13.79,7.17C435,233.77,429,234.32,422.33,234.32Z"/><path d="M518.82,233.22a55.57,55.57,0,0,1-14.89-1.66A21.2,21.2,0,0,1,487.39,215a71.47,71.47,0,0,1-1.66-17.09V99.79h24.81v95.38c0,3.31,0,6.07.56,7.72.55,2.21,1.1,3.86,2.2,5a8.66,8.66,0,0,0,4.41,2.76,20.65,20.65,0,0,0,6.62,1.1h3.86c1.1,0,2.2,0,2.75-.55v21a6,6,0,0,0-2.75.55c-1.1,0-2.21,0-2.76.56h-6.61Z"/><path d="M549.14,131.77H574V232.12H549.14Zm12.68-10.47c-4.41,0-8.27-1.11-11-3.86a13.33,13.33,0,0,1-3.86-9.93,13.29,13.29,0,0,1,3.86-9.92c2.76-2.76,6.62-3.86,11-3.86s8.27,1.1,11,3.86a13.29,13.29,0,0,1,3.86,9.92,13.33,13.33,0,0,1-3.86,9.93C570.09,120.19,566.23,121.3,561.82,121.3Z"/><path d="M642.87,234.32A57.54,57.54,0,0,1,623,231a48.08,48.08,0,0,1-15.44-9.37,47.27,47.27,0,0,1-10.47-16,68.94,68.94,0,0,1-3.86-22.6v-3.86c0-8.27,1.1-14.89,3.86-21.51a50.81,50.81,0,0,1,10.47-15.43c4.41-4.41,9.93-7.17,15.44-9.38a53.78,53.78,0,0,1,18.74-3.3,64.05,64.05,0,0,1,18.75,2.75A37.42,37.42,0,0,1,674.29,140a36.09,36.09,0,0,1,8.83,11.58c2.2,4.41,3.3,9.37,4.41,14.33H662.16a30.89,30.89,0,0,0-6.61-11c-2.76-2.76-7.17-3.86-13.23-3.86a28.11,28.11,0,0,0-9.38,1.65,20,20,0,0,0-12.68,13.79,41.64,41.64,0,0,0-1.65,12.68v3.86a49.75,49.75,0,0,0,1.65,13.78,21.66,21.66,0,0,0,5,9.37c2.21,2.21,4.41,4.41,7.72,5.52a25.85,25.85,0,0,0,9.38,1.65c5,0,9.37-1.1,12.68-3.86s6.06-6.06,7.16-11h25.37a42.9,42.9,0,0,1-4.41,14.89A37.86,37.86,0,0,1,673.74,225,36.52,36.52,0,0,1,660,232.12C655.55,233.77,649.48,234.32,642.87,234.32Z"/><path d="M705.17,232.11V99.79h25.36v73.33l36.39-41.35h29.22l-37.49,42.45L800,232.11H770.23l-28.67-40.8-11,12.13v28.67Z"/><path class="cls-1" d="M55.13,55.13C18.19,91.52,0,126.26,0,161v.55c0,34.74,18.19,70,55.13,106.41,36.39,36.39,71.68,54.59,106.41,55.14h.56c34.73,0,70-18.2,106.4-55.14,72.78-72.77,73.33-139.49,0-213.37C231.56,18.19,196.28,0,161.54,0,126.26,0,91.52,18.19,55.13,55.13Zm48,164.3c-40.25-40.24-39.7-76.63,0-116.33s76.09-40.25,116.33,0,39.7,76.64,0,116.33q-29.76,29.77-57.89,29.78C142.25,249.76,123.5,239.83,103.1,219.43Z"/></g></g></svg>