<svg xmlns="http://www.w3.org/2000/svg" viewBox="0 0 750 218.14"><defs><style>.cls-1{fill:#333;}.cls-2{fill:#3cc;}.cls-3{fill:#fff;}</style></defs><g id="Слой_2" data-name="Слой 2"><g id="Layer_1" data-name="Layer 1"><g id="Layer_1-2" data-name="Layer 1-2"><path class="cls-1" d="M122.89,21.58a38.71,38.71,0,0,0-10.08-10.91A50.32,50.32,0,0,0,99.56,4.24,74.44,74.44,0,0,0,83.8.92,182.73,182.73,0,0,0,64.94,0H10.42A9.49,9.49,0,0,0,.08,8.59c0,.1,0,.19,0,.28v89a83.78,83.78,0,0,0,35.82,38.16V118.3A10.47,10.47,0,0,1,45.4,107H61.78q33.47,0,51.08-14T130.74,51.4a65.38,65.38,0,0,0-1.85-15.7A49.08,49.08,0,0,0,122.89,21.58ZM90.94,67.1a19.17,19.17,0,0,1-8.12,7.58A32.71,32.71,0,0,1,71.1,77.79a108.35,108.35,0,0,1-13.47.82H41.93c-3.76,0-6.11-3.06-6.11-7.53V34.55a5.45,5.45,0,0,1,5.08-5.8,5.07,5.07,0,0,1,1,0h15.7q7.63,0,14.4.44a31.4,31.4,0,0,1,11.61,2.84,17.47,17.47,0,0,1,8,7.19A27.67,27.67,0,0,1,94.43,53a27.58,27.58,0,0,1-3.49,14.07Zm-55,74.31A99.18,99.18,0,0,1,.06,118.84v42.8a6.1,6.1,0,0,0,5.2,6.89,1.07,1.07,0,0,0,.25,0H30.15c6.55,0,5.78-7,5.78-7ZM374.61,46.66H353.35a8.6,8.6,0,0,0-8.94,6.59l-24.7,68s-21.81-62-23.44-66.78a9.94,9.94,0,0,0-9.6-7.91H267.1c-7,0-7,5.45-6.05,7.58s27.69,75.51,38.16,103.59a40.92,40.92,0,0,1,3.43,10.9,28.55,28.55,0,0,1-4.14,10.47,27,27,0,0,1-2.72,3.82c20.17-6,43.61-27.86,55.39-51.47,11.88-32.71,27.53-76.33,28.24-78.56C380.17,49.49,380.17,46.66,374.61,46.66Zm-94.75,143a52.4,52.4,0,0,1-5.46-.44c-2.23-.33-6.48,0-6.48,3.82v16.35c0,6.27,3.05,6.71,4.63,7.15a70.91,70.91,0,0,0,15.37,1.63,39.78,39.78,0,0,0,17.72-3.65A42.15,42.15,0,0,0,318.89,204a72.24,72.24,0,0,0,10.47-15.7,202.28,202.28,0,0,0,8.61-20l3.17-8.67C334.81,165.89,306.9,192.22,279.86,189.61ZM247.69,66.23A28.66,28.66,0,0,0,243,58.65a33.15,33.15,0,0,0-6.65-5.45,48.82,48.82,0,0,0-8.4-4.58,62.63,62.63,0,0,0-9.21-2.78,74.31,74.31,0,0,0-10.91-1.58,131,131,0,0,0-13.19-.6q-48.73,0-55.5,30.75a5.45,5.45,0,0,0,4,6.62,7.36,7.36,0,0,0,.84.14h20c5.45,0,5.45-1.69,7.52-6.38a14,14,0,0,1,4.69-6.43,28.11,28.11,0,0,1,17.23-4.42,24.53,24.53,0,0,1,16.08,4,18.75,18.75,0,0,1,5.94,13c0,6.76-2.07,11.23-10.46,11.23-19.9-.71-41.28,1.52-53.33,8.45a39.41,39.41,0,0,0-18.86,34.78,35.41,35.41,0,0,0,3.22,15.7A31.16,31.16,0,0,0,145,162a38.13,38.13,0,0,0,13.52,7.08,62.64,62.64,0,0,0,17.12,2.18,73.82,73.82,0,0,0,23-3.27,86,86,0,0,0,18.48-10.41v3.82c0,3.76,1.14,7.14,5.45,7.14h23.17c4.69,0,5.78-3.33,5.78-7.47V89.67a87,87,0,0,0-.93-13.3A41.54,41.54,0,0,0,247.69,66.23ZM216,136.34s-6,12.54-27.26,12.54a24,24,0,0,1-14.39-4,14.21,14.21,0,0,1-5.45-12.43,15.7,15.7,0,0,1,9-15.37,68.52,68.52,0,0,1,27-4.53,9.87,9.87,0,0,1,11.23,8.29,9.67,9.67,0,0,1,.11,1.53Z"/><path class="cls-2" d="M745.89,90.44a27.25,27.25,0,0,1,0,28.78c-5.45,8.29-35.16,40-45,50.22-8.5,8.83-20,17.77-31.4,17.77h-236c-31.95,0-33.85-10.9-33.85-35.22V52.82c0-24.92,7.36-32.17,29.22-32.17H670.05c11.29,0,21.38,5.78,32.72,17.45C712.69,48.07,742,84.55,745.89,90.44Z"/><path class="cls-3" d="M453.23,59v-.6c0-3.22,0-6.33-5.45-6.33H428c-4.64,0-4.86,2.51-4.86,6.44V84.66A82.76,82.76,0,0,1,453.23,59Z"/><path class="cls-3" d="M585.77,153.62v-1.41h0V89.07q0-39.63-35-39.63a34.78,34.78,0,0,0-18.31,5.45,66.41,66.41,0,0,0-16,14,27.75,27.75,0,0,0-11.34-14.34,37.54,37.54,0,0,0-19.68-4.64,45.78,45.78,0,0,0-27.86,9.6c-1.74,1.74-34.51,27.26-34.51,53.86v40.4c0,1.26-.66,6.16,4.85,6.16h20.55c6.38,0,5.78-4.19,5.78-5.94V88.53c3.44-4.64,10.47-15.7,22.08-15.7a10.45,10.45,0,0,1,9.6,4.52,28.61,28.61,0,0,1,2.94,15.05v51h0v10.46c0,1.26-.65,6.16,4.86,6.16h20.33c6.38,0,5.78-4.19,5.78-5.94v-1.42h0V88.31c3.71-4.63,10.91-15.7,22.08-15.7a10.91,10.91,0,0,1,9.76,4.52,28.23,28.23,0,0,1,3,15.05v51h0v10.46c0,1.26-.65,6.17,4.85,6.17H580.1C586.53,159.46,585.77,155.32,585.77,153.62Z"/><path class="cls-3" d="M699.11,128a47,47,0,0,1-46.56,30.58c-31.4,0-52.34-21.37-52.34-53.43S622,50.58,651.46,50.58,700.53,71,701.78,103.85c0,4.2-1,7.9-6.32,7.9H628.84c.43,17.61,8.88,27.26,23.93,27.26a20.93,20.93,0,0,0,19.3-11.66,7.42,7.42,0,0,1,6.27-3.22h17.17a3.44,3.44,0,0,1,3.6,3.27,3.89,3.89,0,0,1-.05.76Zm-47.54-57c-12.48,0-20.93,8.67-22.79,23h44.71C672.34,81.39,665.58,70.92,651.57,70.92Z"/></g></g></g></svg>